<svg xmlns="http://www.w3.org/2000/svg" viewBox="0 0 200 200">
  <!-- Background circle -->
  <circle cx="100" cy="100" r="95" fill="#6366f1" />
  
  <!-- Puzzle piece -->
  <path d="
    M 60 60
    L 60 85
    Q 60 90, 55 90
    Q 50 90, 50 95
    Q 50 100, 55 100
    Q 60 100, 60 105
    L 60 140
    L 95 140
    Q 100 140, 100 145
    Q 100 150, 105 150
    Q 110 150, 110 145
    Q 110 140, 115 140
    L 140 140
    L 140 105
    Q 140 100, 145 100
    Q 150 100, 150 95
    Q 150 90, 145 90
    Q 140 90, 140 85
    L 140 60
    Z
  " fill="#ffffff" stroke="#e0e7ff" stroke-width="2"/>
  
  <!-- Puzzle piece details/shading -->
  <path d="
    M 65 65
    L 65 85
    Q 65 88, 62 90
    L 65 140
    L 95 135
    Q 98 135, 100 138
    Q 102 135, 105 135
    L 135 135
    L 135 105
    Q 135 102, 138 100
    Q 135 98, 135 95
    L 135 65
    Z
  " fill="#e0e7ff" opacity="0.5"/>
</svg>